<?xml version="1.0"?>
<svg xmlns="http://www.w3.org/2000/svg" viewBox="0 0 64 64" width="512px" height="512px"><g><g id="laptop"><path d="M61.788,48.385A1,1,0,0,0,61,48H36a1,1,0,0,0-1,1v1H29V49a1,1,0,0,0-1-1H3a1,1,0,0,0-.97,1.243l.621,2.485A3,3,0,0,0,5.562,54H58.438a3,3,0,0,0,2.911-2.272l.621-2.485A1,1,0,0,0,61.788,48.385ZM5.562,52a1,1,0,0,1-.971-.758L4.281,50H27v1a1,1,0,0,0,1,1Zm53.847-.758a1,1,0,0,1-.971.758H36a1,1,0,0,0,1-1V50H59.719Z" data-original="#000000" class="active-path" data-old_color="#000000" fill="#FFFFFF"/><path d="M7,46H57a3,3,0,0,0,3-3V13a3,3,0,0,0-3-3H7a3,3,0,0,0-3,3V43A3,3,0,0,0,7,46ZM6,13a1,1,0,0,1,1-1H57a1,1,0,0,1,1,1V43a1,1,0,0,1-1,1H7a1,1,0,0,1-1-1Z" data-original="#000000" class="active-path" data-old_color="#000000" fill="#FFFFFF"/><path d="M22,37H42a5.006,5.006,0,0,0,5-5V24a5.006,5.006,0,0,0-5-5H22a5.006,5.006,0,0,0-5,5v8A5.006,5.006,0,0,0,22,37Zm-3-5V26.618l5.607,2.8-3.156,5.523A3,3,0,0,1,19,32Zm18.6-1.682L40.277,35H23.723L26.4,30.318,31.553,32.9a1,1,0,0,0,.894,0Zm4.948,4.627-3.156-5.523L45,26.618V32A3,3,0,0,1,42.549,34.945ZM22,21H42a3,3,0,0,1,3,3v.382l-13,6.5-13-6.5V24A3,3,0,0,1,22,21Z" data-original="#000000" class="active-path" data-old_color="#000000" fill="#FFFFFF"/><path d="M18,41V39a3,3,0,0,1-3-3H13A5.006,5.006,0,0,0,18,41Z" data-original="#000000" class="active-path" data-old_color="#000000" fill="#FFFFFF"/><path d="M49,20h2a5.006,5.006,0,0,0-5-5v2A3,3,0,0,1,49,20Z" data-original="#000000" class="active-path" data-old_color="#000000" fill="#FFFFFF"/></g></g> </svg>
